<svg xmlns="http://www.w3.org/2000/svg" width="512" height="512" viewBox="0 0 204.1 204.1"><style>.a{fill:#ff4a4a;}</style><path d="M147 83.8c0.6 1 1.7 1.5 2.8 1.5 0.6 0 1.3-0.2 1.8-0.5 1.6-1 2-3.1 1-4.7 -0.1-0.2-10.5-16.6-1.7-27.9 4.9-6.2 5.7-14 2.5-22.6 -2.3-6.1-6-10.5-6.1-10.7 -1.2-1.4-3.3-1.6-4.8-0.4 -1.4 1.2-1.6 3.3-0.4 4.8 0.2 0.2 11.7 14.4 3.5 24.9C133.9 63.1 146.5 82.9 147 83.8z" class="a"/><path d="M169.7 83.8c0.6 1 1.7 1.5 2.8 1.5 0.6 0 1.3-0.2 1.8-0.5 1.6-1 2-3.1 1-4.7 -0.1-0.2-10.5-16.6-1.7-27.9 4.9-6.2 5.7-14 2.5-22.6 -2.3-6.1-6-10.5-6.1-10.7 -1.2-1.4-3.3-1.6-4.8-0.4 -1.4 1.2-1.6 3.3-0.4 4.7 0.1 0.1 11.7 14.4 3.5 24.9C156.6 63.1 169.2 82.9 169.7 83.8z" class="a"/><path d="M28 85.3c0.6 1 1.7 1.5 2.8 1.5 0.6 0 1.3-0.2 1.8-0.5 1.6-1 2-3.1 1-4.7 -0.1-0.2-10.5-16.6-1.7-27.9 4.9-6.2 5.7-14 2.5-22.6 -2.3-6.1-6-10.5-6.1-10.7 -1.2-1.4-3.3-1.6-4.8-0.4 -1.4 1.2-1.6 3.3-0.4 4.7 0.1 0.1 11.7 14.4 3.5 24.9C14.9 64.6 27.4 84.5 28 85.3z" class="a"/><path d="M50.6 85.3c0.6 1 1.7 1.5 2.8 1.5 0.6 0 1.3-0.2 1.8-0.5 1.6-1 2-3.1 1-4.7 -0.1-0.2-10.5-16.6-1.7-27.9 4.9-6.2 5.7-14 2.5-22.6C54.8 25 51.1 20.6 51 20.4c-1.2-1.4-3.3-1.6-4.8-0.4 -1.4 1.2-1.6 3.3-0.4 4.7 0.1 0.1 11.7 14.4 3.5 24.9C37.5 64.6 50.1 84.5 50.6 85.3z" class="a"/><path d="M192.9 159.8h-7.2c-1.7-42.1-34.7-76.3-76.2-79.9v-3.4c4.2-2.5 6.8-7.1 6.8-12.1 0-7.8-6.3-14.1-14.1-14.1 -0.1 0-0.3 0-0.3 0 -7.8 0-14.1 6.3-14.1 14.1 0 5 2.6 9.6 6.8 12.1v3.4c-41.6 3.6-74.6 37.8-76.2 79.9h-7.2C5 159.8 0 164.8 0 171v4.2c0 6.2 5 11.2 11.2 11.2h181.7c6.2 0 11.2-5 11.2-11.2v-4.2C204.1 164.8 199.1 159.8 192.9 159.8zM94.5 64.4c0-4.1 3.3-7.4 7.4-7.4 0.1 0 0.3 0 0.3 0 4.1 0 7.4 3.3 7.4 7.4 0 3-1.8 5.7-4.7 6.9 -1.3 0.5-2.1 1.8-2.1 3.1v5.2h-1.4v-5.2c0-1.4-0.8-2.6-2.1-3.1C96.4 70.1 94.5 67.4 94.5 64.4zM197.3 175.2c0 2.5-2 4.5-4.5 4.5H11.2c-2.5 0-4.5-2-4.5-4.5v-4.2c0-2.5 2-4.5 4.5-4.5h5.5c0 0 0.1 0 0.1 0h121.2c1.9 0 3.4-1.5 3.4-3.4 0-1.9-1.5-3.4-3.4-3.4H25.1c1.8-40.7 35.4-73.3 76.5-73.5h0.9c41.1 0.2 74.7 32.8 76.5 73.5h-19.1c-1.9 0-3.4 1.5-3.4 3.4 0 1.9 1.5 3.4 3.4 3.4l26.1 0h6.9c2.5 0 4.5 2 4.5 4.5V175.2z" class="a"/></svg>