<svg xmlns="http://www.w3.org/2000/svg" viewBox="0 0 457.5 457.5" width="512" height="512"><path d="M454.7 43.7c-2.7-2.5-6.6-3.2-9.9-1.7 -14.1 6.4-29.2 9.6-44.7 9.6 -34.7 0-54-14.5-72.6-28.5C312.4 11.9 298.3 1.2 278.7 1.2c-21 0-39.5 11.1-49.9 27.7C218.3 12.3 199.8 1.2 178.8 1.2c-19.6 0-33.8 10.7-48.8 21.9C111.4 37.2 92.1 51.7 57.4 51.7c-15.5 0-30.6-3.2-44.7-9.6 -3.3-1.5-7.3-0.8-9.9 1.7 -2.7 2.5-3.5 6.4-2.2 9.8 9.8 25 26.7 46.4 48.8 61.8 10.8 7.5 22.4 13.3 34.6 17.3l53.8 316.2c0.7 4.4 4.6 7.5 8.9 7.5 0.5 0 1 0 1.5-0.1 4.9-0.8 8.2-5.5 7.4-10.4l-52.4-308.4c7.6 1.3 15.4 2 23.3 2 22.6 0 49.4-7.3 70-18.9 14.4-8.2 25.3-18.2 32.3-29.4 7 11.2 17.9 21.3 32.3 29.5 20.6 11.7 47.4 18.9 70 18.9 27.7 0 54.3-8.3 77-24.1 22.1-15.4 39-36.8 48.8-61.8C458.2 50.1 457.3 46.2 454.7 43.7zM187.5 104.8c-17.8 10.1-41.8 16.6-61.1 16.6 -7.4 0-14.7-0.9-21.8-2 -6.5-1-15.6-4-17.3-4.6 -25-8.8-46.4-25.9-60.6-48.8 10 2.5 20.2 3.7 30.6 3.7 40.7 0 64.4-17.8 83.4-32.2 13.6-10.2 24.3-18.3 37.9-18.3 22.6 0 40.9 18.4 40.9 40.9C219.7 82 202.2 96.5 187.5 104.8zM331.1 121.4c-19.3 0-43.3-6.5-61.1-16.6 -14.7-8.3-32.2-22.8-32.2-44.6 0-22.6 18.4-40.9 40.9-40.9 13.6 0 24.3 8.1 37.9 18.3 19 14.3 42.7 32.2 83.4 32.2 10.4 0 20.7-1.3 30.6-3.7C409.6 100.2 372.4 121.4 331.1 121.4z" fill="#ff4a4a"/></svg>