<svg xmlns="http://www.w3.org/2000/svg" viewBox="0 0 333.5 333.5" width="512" height="512"><path d="M332.7 171.3c-1.4-1.5-5.5-3.5-10.2-5 -0.2-1.4-0.5-2.7-1-3.9 -1.6-3.9-4.7-6.3-8.8-6.8 -7.1-0.9-14.7 2.5-20.3 5.6 -11.1-38.8-43.6-71.1-87.1-84.6 3.2-6.7 5-14.1 5-22 0-28.4-23.1-51.5-51.5-51.5 -28.4 0-51.5 23.1-51.5 51.5 0 8.2 2 15.8 5.3 22.7 -14.7 4.9-28.7 11.9-40.7 21 -13.7-7.1-28.6-7-38.7 0.5l-5.2 3.8 17 22.8c-8.4 11.7-14.5 24.4-18 37.9h-7.2C8.9 163.3 0 172.3 0 183.2v57.4c0 11 8.9 19.9 19.9 19.9h28.4c8.3 10.5 18.5 19.7 30.2 27.4v26.9c0 8.1 5.9 14.8 13.2 14.8h24.5c7.3 0 13.2-6.6 13.2-14.8V309c18.8 3.9 37.9 4.2 57.5 0.7v6c0 8.1 5.9 14.8 13.2 14.8h24.5c7.3 0 13.2-6.6 13.2-14.7v-25.1c36.9-22.7 58.8-59.7 58.8-99.7 0-7.9-1-15.6-2.6-23.1 5-3.1 12.2-6.5 17.9-5.7 1.7 0.2 2.9 1.1 3.6 2.6 -4-0.6-7.5-0.3-9.5 1.3 -2.7 2.3-3.9 6.1-3 9.5 1 3.7 4.2 6.2 8.8 6.8 0.4 0.1 0.7 0.1 1.1 0.1 2.4 0 4.7-1.2 6.5-3.5 1.3-1.7 2.2-3.8 2.8-6 2.7 0.9 5 1.9 5.8 2.7 1.2 1.3 3.2 1.4 4.5 0.2C333.8 174.6 333.9 172.6 332.7 171.3zM158.9 16c21.3 0 38.6 17.3 38.6 38.6 0 7.9-2.4 15.3-6.5 21.5l-0.2 0.3c-0.2 0.3-0.4 0.5-0.6 0.7 -0.7 1-1.5 2-2.3 2.9 -0.2 0.3-0.4 0.5-0.7 0.8 -0.8 0.9-1.7 1.7-2.5 2.5 -0.2 0.2-0.4 0.4-0.6 0.5 -2.3 1.9-4.7 3.6-7.3 5 -0.1 0.1-0.2 0.1-0.3 0.1 -1.2 0.6-2.4 1.2-3.6 1.6 -0.3 0.1-0.5 0.2-0.8 0.3 -1.1 0.4-2.2 0.7-3.3 1 -0.3 0.1-0.7 0.2-1 0.3 -1.1 0.3-2.2 0.4-3.3 0.6 -0.4 0.1-0.7 0.1-1.1 0.2 -1.5 0.2-2.9 0.3-4.4 0.3 -1.5 0-2.9-0.1-4.4-0.3 -0.3 0-0.6-0.1-0.9-0.1 -1.2-0.2-2.3-0.4-3.5-0.6 -0.3-0.1-0.5-0.1-0.8-0.2 -1.2-0.3-2.4-0.7-3.6-1.1 -0.2-0.1-0.3-0.1-0.5-0.2 -5.5-2.1-10.5-5.4-14.6-9.8 -0.1-0.1-0.2-0.2-0.3-0.4 -0.9-1-1.8-2-2.6-3.2 -0.2-0.3-0.4-0.5-0.6-0.8l-0.3-0.5c-4.1-6.1-6.6-13.5-6.6-21.5C120.2 33.3 137.6 16 158.9 16zM228 281.4l-3.4 2 0.3 32.3c0 1-0.4 1.7-0.6 1.9l-23.9 0.1c-0.2-0.1-0.7-0.8-0.7-2v-22l-7.9 1.8c-23 5.4-45.6 4.9-67.3-0.8l-8.1-2.1v22.4c0 1.2-0.5 1.9-0.3 1.9l-24.1 0.1c-0.2-0.1-0.7-0.8-0.7-2l0-27.9 1.2-5.4 -3.8-2.4c-12.7-7.9-23.5-17.7-32-29l-1.9-2.6H19.9c-3.9 0-7.1-3.2-7.1-7.1v-57.4c0-3.9 3.2-7.1 7.1-7.1h17.5l1.1-5.1c3.2-15.1 9.8-29.1 19.7-41.7l3-3.9 -14.3-19.2c6.3-1.5 14.6 0.3 22.2 5.1l3.9 2.4 3.6-2.9c12.5-10 27.4-17.8 43.5-22.7 0.1 0.2 0.3 0.3 0.5 0.5 1 1.1 2 2.2 3.1 3.2 0.3 0.3 0.6 0.5 0.8 0.8 1.1 1 2.2 1.9 3.3 2.8 0.3 0.2 0.5 0.4 0.8 0.6 0.5 0.4 1 0.8 1.5 1.1 -8.4 2.1-16.6 5.1-24.2 9 -3.2 1.6-4.4 5.5-2.8 8.6 1.6 3.2 5.5 4.4 8.6 2.8 14.6-7.4 31.4-11.4 48.4-11.4 18 0 35.5 4.3 50.7 12.5 1 0.5 2 0.8 3.1 0.8 2.3 0 4.5-1.2 5.7-3.4 1.7-3.1 0.5-7-2.6-8.7 -8.9-4.8-18.5-8.4-28.5-10.8 0.3-0.2 0.6-0.5 0.9-0.7 0.4-0.3 0.9-0.6 1.3-1 1-0.8 2-1.6 2.9-2.5 0.4-0.4 0.8-0.7 1.2-1.1 1-1 2-2 2.9-3.1 0.2-0.2 0.4-0.4 0.6-0.6 50.6 14.4 85.6 56.2 85.6 103.1C283.8 227.3 262.9 261.2 228 281.4zM314.3 174.9c-0.4 0.5-0.9 1-1.6 1 -1.1-0.2-3.1-0.7-3.6-2.2 -0.3-1 0.1-2.2 0.8-2.8 0.4-0.2 1-0.3 1.7-0.3 1.1 0 2.6 0.2 4.2 0.5C315.6 172.7 315 174 314.3 174.9zM88.6 169.5c0 5.9-4.8 10.7-10.7 10.7s-10.7-4.8-10.7-10.7c0-5.9 4.8-10.7 10.7-10.7S88.6 163.5 88.6 169.5z" fill="#ff4a4a"/></svg>