<svg xmlns="http://www.w3.org/2000/svg" viewBox="0 0 60 60" width="512" height="512"><style>.a{fill:#ff4a4a;}</style><path d="M4 51h28c1.4 0 2.6-0.4 3.7-1.1l17.1-17.1C53.6 32.1 54 31.1 54 30c0-1.1-0.4-2.1-1.2-2.8C52.1 26.4 51.1 26 50 26c-1.1 0-2.1 0.4-2.8 1.2L34 40.4l12.7-24.9c0 0 0 0 0-0.1 0.6-0.7 1.7-0.9 2.6-0.4 0.5 0.3 0.9 0.7 1 1.3 0.1 0.5 0.1 1.1-0.2 1.5 -0.1 0.2-0.1 0.3-0.1 0.5 0 0.3 0.2 0.7 0.5 0.9 0.5 0.3 1.1 0.1 1.4-0.4 0.6-1 1.8-1.3 2.8-0.7 1 0.6 1.4 1.9 0.9 2.8 -0.3 0.5-0.1 1.1 0.4 1.4 0.2 0.1 0.3 0.1 0.5 0.1 0.3 0 0.7-0.2 0.9-0.5 0 0 0 0 0 0 1.8-3.1 2.2-6.7 1.2-10.1 -1-3.3-3.3-6.1-6.4-8 -6.6-3.8-14.5-1.8-18.2 4.5 0 0 0 0 0 0 -0.3 0.5-0.1 1.1 0.4 1.4 0.5 0.3 1.1 0.1 1.4-0.4 0.6-1 1.8-1.2 2.9-0.7 0.5 0.3 0.9 0.7 1 1.3 0.2 0.5 0.1 1.1-0.2 1.5 -0.1 0.2-0.1 0.3-0.1 0.5 0 0.3 0.2 0.7 0.5 0.9 0.5 0.3 1.1 0.1 1.4-0.4 0.6-1 1.8-1.3 2.8-0.7 0.5 0.3 0.9 0.7 1 1.3 0.2 0.5 0.1 1.1-0.2 1.5 -0.1 0.1-0.1 0.3-0.1 0.4L30.4 43H4c-2.2 0-4 1.8-4 4S1.8 51 4 51zM44.9 10.2c-1.1-0.6-2.3-0.7-3.4-0.4 0-0.1 0-0.2-0.1-0.3 -0.3-1-1-1.9-1.9-2.5l0 0c-0.5-0.3-0.9-0.4-1.4-0.5 3.5-2.9 8.6-3.4 13-0.9 4.4 2.5 6.5 7.2 5.8 11.7 -0.3-0.4-0.7-0.7-1.2-1 -0.7-0.4-1.4-0.6-2.1-0.6 -0.4 0-0.9 0.1-1.3 0.2 0-0.1 0-0.2-0.1-0.3 -0.3-1-1-1.9-1.9-2.5 -1.1-0.6-2.3-0.7-3.4-0.4 0-0.1 0-0.2-0.1-0.3C46.5 11.6 45.8 10.7 44.9 10.2zM4 45h28.1L48.6 28.6c0.7-0.8 2.1-0.7 2.8 0C51.8 29 52 29.5 52 30c0 0.5-0.2 1-0.6 1.4L34.5 48.3C33.8 48.8 33 49 32 49h-28c-1.1 0-2-0.9-2-2S2.9 45 4 45z" class="a"/><path d="M58.4 54.9L55.4 52l-8.5-8.5 12.8-12.8c0.4-0.4 0.4-1 0-1.4s-1-0.4-1.4 0L35.6 52H1 0v5h57.5c0 0 0 0 0.1 0l0.7 0.7C58.5 57.9 58.7 58 59 58s0.5-0.1 0.7-0.3c0.4-0.4 0.4-1 0-1.4L58.4 54.9zM45.5 44.9L52.6 52H38.4L45.5 44.9zM2 55v-1h34.4 18.2l1 1H2z" class="a"/><path d="M7 14h2.1c0.2 1.5 0.8 2.8 1.6 3.9l-1.5 1.5c-0.4 0.4-0.4 1 0 1.4 0.2 0.2 0.5 0.3 0.7 0.3s0.5-0.1 0.7-0.3l1.5-1.5c1.1 0.9 2.4 1.4 3.9 1.6V23c0 0.6 0.4 1 1 1s1-0.4 1-1v-2.1c1.5-0.2 2.8-0.8 3.9-1.6l1.5 1.5c0.2 0.2 0.5 0.3 0.7 0.3s0.5-0.1 0.7-0.3c0.4-0.4 0.4-1 0-1.4l-1.5-1.5c0.9-1.1 1.4-2.4 1.6-3.9H27c0.6 0 1-0.4 1-1s-0.4-1-1-1h-2.1c-0.2-1.5-0.8-2.8-1.6-3.9l1.5-1.5c0.4-0.4 0.4-1 0-1.4s-1-0.4-1.4 0l-1.5 1.5c-1.1-0.9-2.4-1.4-3.9-1.6V3c0-0.6-0.4-1-1-1s-1 0.4-1 1v2.1c-1.5 0.2-2.8 0.8-3.9 1.6l-1.5-1.5c-0.4-0.4-1-0.4-1.4 0s-0.4 1 0 1.4l1.5 1.5C9.8 9.2 9.3 10.5 9.1 12H7c-0.6 0-1 0.4-1 1S6.4 14 7 14zM17 7c3.3 0 6 2.7 6 6s-2.7 6-6 6 -6-2.7-6-6S13.7 7 17 7z" class="a"/></svg>