<?xml version="1.0" encoding="utf-8"?>
<!-- Generator: Adobe Illustrator 16.0.0, SVG Export Plug-In . SVG Version: 6.00 Build 0)  -->
<!DOCTYPE svg PUBLIC "-//W3C//DTD SVG 1.1//EN" "http://www.w3.org/Graphics/SVG/1.1/DTD/svg11.dtd">
<svg version="1.1" id="Layer_1" xmlns="http://www.w3.org/2000/svg" xmlns:xlink="http://www.w3.org/1999/xlink" x="0px" y="0px"
	 width="103.25px" height="103.75px" viewBox="0 0 103.25 103.75" enable-background="new 0 0 103.25 103.75" xml:space="preserve">
<g id="pool-icon_1_">
	<g id="label_21_">
		<circle fill="#FFD55C" cx="51.729" cy="52.201" r="50.329"/>
	</g>
	<path id="shadow_44_" fill="#E6E6E5" d="M55.186,102.188h2.334c-0.803,0.092-1.61,0.163-2.424,0.217
		c-0.01-0.021-0.021-0.042-0.021-0.068C55.074,102.255,55.125,102.188,55.186,102.188z M101.81,55.711l-1.065-0.371h0.693
		l-1.068-0.372h0.697l-1.068-0.372h0.696l-1.069-0.372h0.697l-1.068-0.372h0.696l-1.069-0.372h0.697l-1.068-0.372h0.697
		l-1.066-0.371h0.694l-1.069-0.372h0.697l-1.068-0.372h0.696l-1.065-0.371h0.693l-1.071-0.373h0.7l-1.066-0.371h0.693l-1.068-0.372
		h0.697l-1.069-0.372h0.697l-1.069-0.372h0.697l-1.068-0.372h0.696l-1.069-0.372h0.697l-1.068-0.372h0.697l-1.066-0.371h0.694
		l-1.069-0.372H94l-1.068-0.372h0.696l-1.065-0.371h0.693l-1.072-0.373h0.701l-1.066-0.371h0.693l-1.068-0.372h0.697l-1.068-0.372
		h0.696l-1.069-0.372h0.697l-1.068-0.372h0.697l-1.069-0.372h0.696l-1.065-0.371h0.694l-1.068-0.372h0.696l-1.069-0.372h0.697
		l-1.068-0.372h0.697L88.1,42.695h0.693l-1.068-0.372h0.697l-1.068-0.372h0.696l-1.069-0.372h0.697l-1.068-0.372h0.696l-1.069-0.372
		h0.697l-1.068-0.372h0.697l-1.066-0.371h0.693l-1.068-0.372h0.697l-1.069-0.372h0.697l-1.069-0.372h0.697l-1.068-0.372h0.696
		l-1.065-0.371h0.693l-1.068-0.372h0.697l-1.069-0.372h0.696l-1.068-0.372h0.697l-1.068-0.372h0.696l-1.069-0.372h0.697L81.402,36
		H82.1l-1.066-0.371h0.693l-1.068-0.372h0.697l-1.068-0.372h0.696L51.73,24.701L22.473,34.885h1.44l-1.069,0.372h1.441l-1.068,0.372
		h1.438L23.588,36h1.441l-1.069,0.372h1.44l-1.068,0.372h1.441l-1.069,0.372h1.44l-1.068,0.372h1.44l-1.069,0.372h1.441
		l-1.068,0.372h1.438l-1.066,0.371h1.441l-1.069,0.372h1.44l-1.068,0.372h1.441l-1.069,0.372h1.44l-1.068,0.372h1.438l-1.066,0.371
		h1.441l-1.069,0.372h1.44l-1.068,0.372h1.441l-1.069,0.372h1.44l-1.068,0.372h1.44l-1.069,0.372h1.441l-1.068,0.372h1.438
		l-1.066,0.371h1.441l-1.069,0.372h1.44l-1.068,0.372h1.44l-1.069,0.372h1.439l-1.066,0.371h1.44l-1.069,0.372h1.441l-1.069,0.372
		h1.44l-1.068,0.372h1.441l-1.069,0.372h1.44l-1.068,0.372h1.438l-1.066,0.371h1.443l-1.071,0.373h1.438l-1.066,0.371h1.441
		l-1.069,0.372h1.44l-1.068,0.372H37.3l-0.794,0.276H32.24v5.921h0.373v0.372h0.371v0.372h0.372v0.371h0.372v0.372H34.1v0.372h0.373
		v0.348h-2.26l-2.168,2.176v6.18h0.372v0.372h0.372v0.372h0.372v0.371h0.372v0.372h0.371v0.372h0.373v0.088H27.74v1.171h0.371v0.372
		h0.373v0.371h0.371v0.373h0.373v0.371H29.6v0.372h0.372v0.372h0.372v0.264h-2.492c-0.062,0-0.111,0.097-0.111,0.215
		c0,0.119,0.05,0.215,0.111,0.215h0.3c-0.023,0.039-0.04,0.093-0.04,0.157c0,0.119,0.051,0.214,0.112,0.214h0.301
		c-0.024,0.039-0.04,0.093-0.04,0.157c0,0.119,0.05,0.216,0.111,0.216h0.299c-0.023,0.039-0.039,0.093-0.039,0.156
		c0,0.119,0.051,0.215,0.112,0.215h0.3c-0.023,0.039-0.039,0.094-0.039,0.158c0,0.119,0.049,0.214,0.111,0.214h0.299
		c-0.023,0.039-0.039,0.093-0.039,0.157c0,0.119,0.05,0.215,0.112,0.215h0.3c-0.023,0.039-0.04,0.093-0.04,0.157
		c0,0.119,0.05,0.215,0.112,0.215h0.299c-0.023,0.039-0.039,0.093-0.039,0.157c0,0.119,0.05,0.215,0.111,0.215h0.299
		c-0.022,0.039-0.038,0.093-0.038,0.156c0,0.12,0.05,0.216,0.112,0.216h0.299c-0.023,0.04-0.039,0.094-0.039,0.157
		c0,0.118,0.049,0.215,0.111,0.215h0.299c-0.023,0.039-0.039,0.093-0.039,0.156c0,0.119,0.051,0.215,0.111,0.215h0.301
		c-0.023,0.039-0.04,0.093-0.04,0.157c0,0.119,0.05,0.215,0.112,0.215h0.299c-0.023,0.039-0.039,0.093-0.039,0.157
		c0,0.119,0.05,0.215,0.111,0.215h0.3c-0.023,0.04-0.039,0.094-0.039,0.157c0,0.034,0.011,0.059,0.019,0.087h-3.813
		c-0.062,0-0.112,0.066-0.112,0.148c0,0.081,0.051,0.147,0.112,0.147h4.168c0.001,0.029,0.01,0.051,0.016,0.076h-3.813
		c-0.061,0-0.111,0.066-0.111,0.148c0,0.081,0.051,0.147,0.111,0.147h4.169c0.001,0.029,0.01,0.051,0.017,0.076h-3.813
		c-0.062,0-0.112,0.066-0.112,0.148c0,0.08,0.051,0.147,0.112,0.147h4.169c0,0.029,0.01,0.051,0.016,0.075h-3.813
		c-0.061,0-0.112,0.067-0.112,0.149c0,0.081,0.052,0.146,0.112,0.146h4.168c0.001,0.029,0.01,0.051,0.017,0.076h-3.813
		c-0.061,0-0.111,0.066-0.111,0.148c0,0.081,0.051,0.147,0.111,0.147h4.17c0,0.029,0.01,0.051,0.016,0.076h-3.813
		c-0.062,0-0.112,0.066-0.112,0.148c0,0.081,0.051,0.147,0.112,0.147h4.168c0.001,0.029,0.01,0.051,0.017,0.076h-3.813
		c-0.061,0-0.111,0.066-0.111,0.148c0,0.081,0.051,0.147,0.111,0.147h4.169c0.001,0.029,0.01,0.051,0.017,0.076h-3.813
		c-0.062,0-0.112,0.066-0.112,0.148c0,0.081,0.051,0.147,0.112,0.147h4.169c0,0.029,0.01,0.052,0.016,0.076h-3.813
		c-0.061,0-0.111,0.066-0.111,0.148c0,0.081,0.051,0.147,0.111,0.147h4.169c0.001,0.029,0.01,0.051,0.017,0.076h-3.813
		c-0.062,0-0.112,0.066-0.112,0.147s0.051,0.148,0.112,0.148h4.169c0,0.029,0.01,0.051,0.016,0.075H32.5
		c-0.062,0-0.111,0.066-0.111,0.148c0,0.081,0.05,0.147,0.111,0.147h4.168c0.001,0.029,0.01,0.051,0.017,0.076h-3.813
		c-0.062,0-0.112,0.066-0.112,0.148c0,0.081,0.051,0.147,0.112,0.147h4.168c0.001,0.029,0.01,0.051,0.017,0.076h-3.813
		c-0.062,0-0.112,0.066-0.112,0.148c0,0.081,0.051,0.147,0.112,0.147h4.168c0,0.029,0.01,0.051,0.016,0.076h-3.813
		c-0.061,0-0.111,0.066-0.111,0.148c0,0.081,0.051,0.147,0.111,0.147h4.169c0.001,0.029,0.01,0.051,0.017,0.075h-3.813
		c-0.062,0-0.112,0.067-0.112,0.149c0,0.081,0.051,0.146,0.112,0.146h4.169c0,0.029,0.01,0.051,0.016,0.076h-3.813
		c-0.062,0-0.112,0.067-0.112,0.148s0.051,0.147,0.112,0.147h4.168c0.001,0.029,0.01,0.051,0.017,0.076h-3.813
		c-0.062,0-0.112,0.067-0.112,0.148s0.051,0.147,0.112,0.147h4.168c0.001,0.029,0.01,0.051,0.017,0.076h-3.813
		c-0.062,0-0.112,0.066-0.112,0.148c0,0.081,0.051,0.147,0.112,0.147h4.168c0.001,0.029,0.01,0.051,0.017,0.076h-3.813
		c-0.061,0-0.111,0.066-0.111,0.148c0,0.081,0.051,0.147,0.111,0.147h4.169c0.001,0.029,0.01,0.051,0.017,0.076h-3.813
		c-0.061,0-0.112,0.066-0.112,0.148c0,0.081,0.052,0.147,0.112,0.147h4.169c0,0.029,0.01,0.052,0.016,0.076h-3.813
		c-0.061,0-0.111,0.065-0.111,0.148c0,0.081,0.051,0.147,0.111,0.147h4.168c0.002,0.029,0.01,0.051,0.017,0.075h-3.813
		c-0.062,0-0.112,0.066-0.112,0.148c0,0.081,0.051,0.147,0.112,0.147h4.169c0,0.029,0.01,0.051,0.016,0.076h-3.813
		c-0.062,0-0.112,0.066-0.112,0.148c0,0.081,0.051,0.147,0.112,0.147h4.168c0.001,0.029,0.01,0.051,0.017,0.076h-3.813
		c-0.061,0-0.111,0.066-0.111,0.148c0,0.081,0.051,0.147,0.111,0.147h4.17c0,0.029,0.01,0.051,0.016,0.076h-3.813
		c-0.061,0-0.111,0.066-0.111,0.148c0,0.081,0.051,0.147,0.111,0.147h4.169c0.001,0.029,0.01,0.051,0.016,0.075h-3.813
		c-0.061,0-0.111,0.067-0.111,0.149c0,0.081,0.051,0.147,0.111,0.147h4.168c0.002,0.029,0.01,0.051,0.017,0.075H38.45
		c-0.062,0-0.112,0.066-0.112,0.149c0,0.08,0.051,0.146,0.112,0.146h4.169c0,0.029,0.01,0.052,0.016,0.077h-3.813
		c-0.062,0-0.112,0.065-0.112,0.147s0.051,0.147,0.112,0.147h4.168c0.001,0.029,0.01,0.051,0.017,0.076h-3.813
		c-0.062,0-0.112,0.066-0.112,0.148c0,0.081,0.051,0.147,0.112,0.147h4.169c0,0.029,0.01,0.051,0.016,0.076h-3.813
		c-0.062,0-0.112,0.066-0.112,0.148c0,0.081,0.051,0.147,0.112,0.147h4.168c0.001,0.029,0.01,0.051,0.017,0.076h-3.813
		c-0.061,0-0.111,0.066-0.111,0.147c0,0.082,0.051,0.148,0.111,0.148h4.168c0.002,0.029,0.011,0.051,0.018,0.076H40.31
		c-0.061,0-0.112,0.066-0.112,0.148c0,0.08,0.052,0.147,0.112,0.147h4.169c0,0.029,0.01,0.051,0.016,0.075h-3.813
		c-0.062,0-0.111,0.066-0.111,0.149c0,0.081,0.05,0.147,0.111,0.147h4.168c0.002,0.029,0.01,0.051,0.017,0.075h-3.813
		c-0.062,0-0.112,0.066-0.112,0.148c0,0.081,0.051,0.147,0.112,0.147h4.169c0,0.029,0.01,0.051,0.016,0.076h-3.813
		c-0.062,0-0.112,0.066-0.112,0.148c0,0.081,0.051,0.147,0.112,0.147h4.168c0.001,0.029,0.01,0.051,0.017,0.076h-3.813
		c-0.061,0-0.111,0.066-0.111,0.148c0,0.081,0.051,0.147,0.111,0.147h4.169c0.001,0.029,0.01,0.051,0.017,0.076H42.17
		c-0.062,0-0.112,0.066-0.112,0.148c0,0.081,0.051,0.147,0.112,0.147h4.168c0.001,0.029,0.01,0.051,0.016,0.075h-3.813
		c-0.061,0-0.111,0.067-0.111,0.148c0,0.082,0.051,0.148,0.111,0.148h4.168c0.002,0.029,0.01,0.051,0.018,0.076h-3.813
		c-0.062,0-0.112,0.066-0.112,0.148c0,0.08,0.051,0.146,0.112,0.146h4.169c0,0.029,0.01,0.051,0.016,0.076h-3.813
		c-0.061,0-0.112,0.066-0.112,0.148c0,0.081,0.052,0.147,0.112,0.147h4.168c0.001,0.029,0.01,0.051,0.017,0.076h-3.813
		c-0.061,0-0.111,0.066-0.111,0.148c0,0.081,0.051,0.147,0.111,0.147h4.169c0.001,0.029,0.01,0.051,0.017,0.076h-3.813
		c-0.062,0-0.112,0.066-0.112,0.148c0,0.081,0.051,0.147,0.112,0.147h4.168c0.001,0.029,0.01,0.051,0.017,0.076H44.4
		c-0.061,0-0.111,0.066-0.111,0.147c0,0.082,0.051,0.148,0.111,0.148h4.169c0.001,0.029,0.01,0.051,0.017,0.076h-3.813
		c-0.062,0-0.112,0.066-0.112,0.148c0,0.08,0.051,0.147,0.112,0.147h4.169c0,0.029,0.01,0.051,0.016,0.075h-3.813
		c-0.061,0-0.111,0.066-0.111,0.149c0,0.08,0.051,0.147,0.111,0.147h4.168c0.002,0.029,0.01,0.051,0.017,0.075h-3.813
		c-0.062,0-0.112,0.067-0.112,0.148s0.051,0.147,0.112,0.147h4.168c0.001,0.029,0.01,0.051,0.017,0.076h-3.813
		c-0.062,0-0.112,0.066-0.112,0.148c0,0.081,0.051,0.147,0.112,0.147h4.168c0.001,0.029,0.01,0.051,0.016,0.076H46.26
		c-0.061,0-0.111,0.066-0.111,0.148c0,0.081,0.051,0.147,0.111,0.147h4.168c0.002,0.029,0.011,0.051,0.018,0.076h-3.813
		c-0.062,0-0.111,0.066-0.111,0.148c0,0.081,0.05,0.147,0.111,0.147h4.169c0.001,0.029,0.01,0.051,0.016,0.076h-3.813
		c-0.061,0-0.111,0.065-0.111,0.147s0.051,0.148,0.111,0.148h4.168c0.002,0.029,0.011,0.051,0.018,0.076h-3.813
		c-0.062,0-0.112,0.065-0.112,0.147c0,0.081,0.051,0.147,0.112,0.147h4.169c0,0.029,0.01,0.051,0.016,0.076h-3.813
		c-0.062,0-0.112,0.066-0.112,0.148c0,0.081,0.051,0.147,0.112,0.147h4.168c0.001,0.029,0.01,0.051,0.016,0.076h-3.813
		c-0.061,0-0.111,0.066-0.111,0.148c0,0.081,0.051,0.147,0.111,0.147h4.169c0.001,0.029,0.01,0.051,0.017,0.076h-3.813
		c-0.063,0-0.112,0.066-0.112,0.148c0,0.081,0.05,0.146,0.112,0.146h4.168c0.001,0.029,0.01,0.052,0.017,0.077h-3.813
		c-0.061,0-0.111,0.065-0.111,0.147s0.051,0.148,0.111,0.148h4.168c0.002,0.029,0.011,0.051,0.018,0.076h-3.813
		c-0.061,0-0.112,0.065-0.112,0.148c0,0.08,0.052,0.147,0.112,0.147h4.169c0,0.029,0.01,0.051,0.016,0.075h-3.813
		c-0.062,0-0.111,0.066-0.111,0.148s0.05,0.148,0.111,0.148h4.168c0.002,0.029,0.01,0.051,0.017,0.075h-3.813
		c-0.061,0-0.111,0.066-0.111,0.148c0,0.081,0.051,0.147,0.111,0.147h4.17c0,0.029,0.01,0.051,0.016,0.076h-3.813
		c-0.062,0-0.112,0.066-0.112,0.148c0,0.081,0.051,0.147,0.112,0.147h4.168c0.001,0.029,0.01,0.051,0.016,0.075h-3.813
		c-0.061,0-0.111,0.067-0.111,0.149c0,0.081,0.051,0.147,0.111,0.147h4.168c0.002,0.029,0.011,0.051,0.018,0.076h-3.813
		c-0.061,0-0.111,0.066-0.111,0.148c0,0.081,0.051,0.146,0.111,0.146h4.169c0,0.029,0.01,0.051,0.016,0.076h-3.813
		c-0.062,0-0.112,0.066-0.112,0.148c0,0.081,0.051,0.148,0.112,0.148h4.168c0.002,0.029,0.011,0.051,0.018,0.076h-3.814
		c-0.061,0-0.111,0.065-0.111,0.148c0,0.08,0.051,0.146,0.111,0.146h4.17c0,0.029,0.01,0.051,0.016,0.076h-3.813
		c-0.062,0-0.112,0.066-0.112,0.148c0,0.081,0.051,0.148,0.112,0.148h4.168c0.001,0.029,0.01,0.051,0.016,0.075h-3.812
		c-0.062,0-0.112,0.066-0.112,0.148c0,0.081,0.051,0.147,0.112,0.147h4.169c0,0.029,0.01,0.051,0.016,0.075h-3.813
		c-0.061,0-0.111,0.066-0.111,0.149c0,0.08,0.051,0.146,0.111,0.146h4.169c0,0.029,0.01,0.051,0.016,0.076h-3.813
		c-0.061,0-0.111,0.066-0.111,0.149c0,0.081,0.051,0.147,0.111,0.147h4.168c0.002,0.029,0.011,0.051,0.018,0.076h-3.813
		c-0.061,0-0.111,0.066-0.111,0.148c0,0.081,0.051,0.146,0.111,0.146h4.169c0,0.029,0.01,0.051,0.016,0.076H54.07
		c-0.061,0-0.112,0.066-0.112,0.148c0,0.081,0.052,0.148,0.112,0.148h4.168c0.002,0.029,0.01,0.051,0.017,0.075h-3.813
		c-0.061,0-0.111,0.066-0.111,0.148c0,0.081,0.051,0.147,0.111,0.147h4.17c0,0.029,0.01,0.051,0.016,0.076h-3.813
		c-0.062,0-0.112,0.066-0.112,0.148c0,0.081,0.051,0.147,0.112,0.147h3.305c23.389-2.966,41.761-21.972,43.745-45.654l-0.007-0.003
		h0.008c0.006-0.078,0.012-0.156,0.018-0.233l-0.398-0.139h0.408c0.003-0.032,0.006-0.065,0.008-0.098l-0.787-0.274H101.81z"/>
	<g id="icon_20_">
		<polygon fill="#F36E41" points="80.983,34.885 51.73,24.701 22.473,34.885 		"/>
		<polygon fill="#E6E6E5" points="51.73,34.885 80.983,34.885 51.73,24.701 		"/>
		<path fill="#FEFEF8" d="M73.41,65.033v-6.18l-2.161-2.176H60.078l-2.166,2.176v6.18h2.738c0,0,0-1.926,0-3.317h10.02
			c0,1.392,0,3.317,0,3.317H73.41z"/>
		<path fill="#FEFEF8" d="M71.215,54.471V48.55H60.111v5.921h2.207c0,0,0-2.4,0-3.715h6.687c0,1.314,0,3.715,0,3.715H71.215z"/>
		<path fill="#FEFEF8" d="M50.623,35.928v29.277h2.211V35.928c-0.371,0-0.737,0.003-1.104,0.003
			C51.355,35.931,50.992,35.928,50.623,35.928z"/>
		<path fill="#FEFEF8" d="M45.545,65.033v-6.18l-2.166-2.176H32.213l-2.168,2.176v6.18h2.741c0,0,0-1.926,0-3.317h10.015
			c0,1.392,0,3.317,0,3.317H45.545z"/>
		<path fill="#FEFEF8" d="M43.351,54.471V48.55H32.24v5.921h2.212c0,0,0-2.4,0-3.715h6.688c0,1.314,0,3.715,0,3.715H43.351z"/>
		<rect x="27.74" y="66.98" fill="#FFFFFF" width="47.979" height="1.171"/>
		<g>
			<path fill="#FFFFFF" d="M61.592,70.861c0-0.118-0.051-0.215-0.115-0.215H27.852c-0.062,0-0.111,0.097-0.111,0.215
				c0,0.119,0.05,0.215,0.111,0.215h33.625C61.541,71.076,61.592,70.98,61.592,70.861z"/>
			<path fill="#FFFFFF" d="M75.605,72.666H41.98c-0.063,0-0.113,0.095-0.113,0.213c0,0.119,0.051,0.218,0.113,0.218h33.625
				c0.062,0,0.113-0.099,0.113-0.218C75.719,72.761,75.667,72.666,75.605,72.666z"/>
			<path fill="#FFFFFF" d="M60.659,75.932c0-0.082-0.05-0.148-0.11-0.148H28.781c-0.062,0-0.112,0.066-0.112,0.148
				c0,0.081,0.051,0.147,0.112,0.147h31.768C60.609,76.079,60.659,76.013,60.659,75.932z"/>
			<path fill="#FFFFFF" d="M69.711,79.404H37.937c-0.058,0-0.104,0.067-0.104,0.148c0,0.082,0.047,0.148,0.104,0.148h31.774
				c0.06,0,0.106-0.066,0.106-0.148C69.817,79.472,69.771,79.404,69.711,79.404z"/>
		</g>
	</g>
</g>
</svg>
