<?xml version="1.0" encoding="utf-8"?>
<!-- Generator: Adobe Illustrator 16.0.0, SVG Export Plug-In . SVG Version: 6.00 Build 0)  -->
<!DOCTYPE svg PUBLIC "-//W3C//DTD SVG 1.1//EN" "http://www.w3.org/Graphics/SVG/1.1/DTD/svg11.dtd">
<svg version="1.1" id="Layer_1" xmlns="http://www.w3.org/2000/svg" xmlns:xlink="http://www.w3.org/1999/xlink" x="0px" y="0px"
	 width="103.25px" height="103.75px" viewBox="0 0 103.25 103.75" style="enable-background:new 0 0 103.25 103.75;"
	 xml:space="preserve">
<g id="parasol-icon">
	<g id="label_28_">
		<circle style="fill:#2B455F;" cx="51.922" cy="52.422" r="50.328"/>
	</g>
	<path id="shadow_52_" style="fill:#CDCCCC;" d="M101.212,60.775c-0.049-0.075-0.083-0.157-0.148-0.224s-0.148-0.1-0.224-0.148
		c-0.049-0.075-0.082-0.157-0.147-0.223c-0.065-0.066-0.148-0.101-0.224-0.149c-0.049-0.074-0.082-0.156-0.148-0.223
		s-0.148-0.101-0.225-0.149c-0.049-0.075-0.082-0.157-0.147-0.223c-0.065-0.066-0.148-0.101-0.224-0.149
		c-0.049-0.075-0.082-0.157-0.148-0.223c-0.066-0.066-0.148-0.101-0.225-0.149c-0.049-0.075-0.082-0.156-0.146-0.222
		c-0.066-0.066-0.148-0.1-0.224-0.148c-0.049-0.075-0.083-0.157-0.148-0.224s-0.148-0.101-0.224-0.149
		c-0.049-0.075-0.082-0.157-0.148-0.223c-0.066-0.066-0.148-0.101-0.225-0.149c-0.049-0.075-0.082-0.157-0.147-0.223
		c-0.065-0.066-0.148-0.101-0.224-0.149c-0.049-0.074-0.082-0.156-0.148-0.223s-0.148-0.101-0.225-0.149
		c-0.049-0.074-0.082-0.156-0.146-0.222c-0.066-0.066-0.148-0.1-0.224-0.148c-0.049-0.076-0.083-0.158-0.149-0.225
		c-0.065-0.066-0.148-0.101-0.224-0.149c-0.049-0.075-0.082-0.157-0.147-0.223c-0.066-0.066-0.148-0.1-0.225-0.148
		c-0.049-0.075-0.082-0.157-0.147-0.223c-0.065-0.066-0.148-0.101-0.224-0.149c-0.049-0.075-0.082-0.157-0.148-0.223
		c-0.066-0.066-0.149-0.101-0.225-0.15c-0.049-0.074-0.082-0.155-0.147-0.221c-0.065-0.066-0.147-0.1-0.224-0.148
		c-0.049-0.076-0.082-0.158-0.148-0.225s-0.148-0.101-0.225-0.149c-0.048-0.074-0.082-0.156-0.146-0.222
		c-0.066-0.065-0.148-0.1-0.223-0.148c-0.049-0.075-0.083-0.158-0.149-0.225s-0.149-0.101-0.225-0.149
		c-0.049-0.074-0.082-0.156-0.147-0.222c-0.066-0.066-0.148-0.101-0.225-0.149c-0.049-0.075-0.082-0.156-0.147-0.222
		c-0.065-0.066-0.147-0.1-0.223-0.148c-0.049-0.076-0.083-0.158-0.149-0.225s-0.148-0.101-0.225-0.15
		c-0.049-0.074-0.082-0.155-0.146-0.221c-0.066-0.066-0.148-0.1-0.224-0.148c-0.049-0.075-0.083-0.158-0.149-0.225
		c-0.065-0.066-0.148-0.1-0.224-0.148c-0.048-0.075-0.082-0.157-0.147-0.223c-0.066-0.066-0.148-0.1-0.225-0.149
		c-0.048-0.074-0.082-0.157-0.147-0.223c-0.065-0.066-0.148-0.1-0.224-0.148c-0.049-0.075-0.082-0.157-0.148-0.224
		c-0.065-0.066-0.148-0.101-0.224-0.149c-0.049-0.075-0.082-0.157-0.147-0.223c-0.066-0.066-0.148-0.1-0.225-0.149
		c-0.049-0.074-0.082-0.156-0.148-0.223s-0.148-0.101-0.225-0.149c-0.048-0.074-0.081-0.156-0.146-0.222
		c-0.066-0.066-0.148-0.1-0.225-0.149c-0.048-0.075-0.082-0.157-0.147-0.223c-0.065-0.066-0.148-0.101-0.224-0.149
		c-0.049-0.074-0.082-0.156-0.148-0.223s-0.148-0.101-0.225-0.149c-0.049-0.075-0.082-0.157-0.147-0.223
		c-0.065-0.066-0.148-0.101-0.224-0.149c-0.049-0.075-0.082-0.157-0.148-0.223c-0.066-0.066-0.149-0.101-0.225-0.149
		c-0.049-0.075-0.082-0.156-0.147-0.222c-0.065-0.066-0.147-0.1-0.223-0.148c-0.049-0.075-0.083-0.157-0.148-0.224
		c-0.066-0.066-0.149-0.101-0.225-0.149c-0.048-0.075-0.082-0.157-0.147-0.223c-0.066-0.066-0.148-0.1-0.225-0.149
		c-0.048-0.074-0.082-0.157-0.147-0.223c-0.065-0.066-0.148-0.1-0.224-0.149c-0.049-0.074-0.082-0.156-0.148-0.223
		s-0.148-0.101-0.225-0.149c-0.049-0.075-0.082-0.156-0.147-0.222c-0.065-0.066-0.147-0.1-0.224-0.148
		c-0.048-0.075-0.082-0.157-0.147-0.224c-0.066-0.066-0.149-0.101-0.225-0.149c-0.048-0.075-0.082-0.157-0.147-0.223
		c-0.066-0.066-0.148-0.1-0.225-0.149c-0.048-0.074-0.082-0.157-0.147-0.223c-0.065-0.066-0.148-0.101-0.224-0.149
		c-0.049-0.075-0.082-0.157-0.148-0.223c-0.066-0.066-0.149-0.101-0.225-0.149c-0.049-0.075-0.082-0.156-0.147-0.222
		c-0.065-0.066-0.147-0.1-0.224-0.148c-0.049-0.076-0.082-0.158-0.148-0.225s-0.148-0.1-0.224-0.149
		c-0.049-0.074-0.082-0.156-0.147-0.222c-0.066-0.066-0.148-0.1-0.223-0.148c-0.049-0.076-0.083-0.158-0.149-0.225
		s-0.149-0.101-0.225-0.149c-0.049-0.074-0.082-0.156-0.147-0.222c-0.066-0.066-0.148-0.1-0.224-0.148
		c-0.049-0.075-0.083-0.158-0.148-0.224c-0.065-0.066-0.148-0.101-0.224-0.149c-0.049-0.075-0.082-0.156-0.148-0.223
		s-0.148-0.101-0.225-0.149c-0.048-0.074-0.081-0.156-0.146-0.222c-0.066-0.066-0.148-0.101-0.225-0.149
		c-0.049-0.075-0.082-0.157-0.147-0.223c-0.066-0.066-0.149-0.101-0.225-0.149c-0.048-0.075-0.082-0.157-0.147-0.223
		c-0.066-0.066-0.148-0.1-0.225-0.149c-0.048-0.074-0.082-0.157-0.147-0.223c-0.065-0.066-0.148-0.101-0.224-0.149
		c-0.049-0.075-0.082-0.157-0.148-0.223c-0.066-0.066-0.148-0.101-0.225-0.149c-0.049-0.075-0.082-0.157-0.147-0.223
		c-0.066-0.066-0.149-0.101-0.225-0.149c-0.048-0.074-0.081-0.156-0.147-0.222c-0.065-0.066-0.148-0.101-0.224-0.149
		c-0.049-0.075-0.082-0.157-0.147-0.223c-0.066-0.066-0.148-0.1-0.225-0.149c-0.049-0.074-0.082-0.157-0.148-0.223
		c-0.065-0.066-0.147-0.1-0.223-0.148c-0.049-0.075-0.082-0.157-0.148-0.224s-0.148-0.101-0.225-0.149
		c-0.049-0.075-0.082-0.157-0.147-0.223c-0.065-0.066-0.148-0.1-0.224-0.148c-0.049-0.075-0.082-0.157-0.148-0.224
		c-0.065-0.066-0.148-0.101-0.224-0.149c-0.049-0.075-0.082-0.157-0.147-0.223c-0.066-0.066-0.149-0.101-0.226-0.149
		c-0.048-0.074-0.081-0.156-0.147-0.222c-0.065-0.066-0.147-0.1-0.223-0.148c-0.049-0.075-0.082-0.157-0.148-0.224
		s-0.148-0.101-0.225-0.149c-0.049-0.075-0.082-0.157-0.147-0.223c-0.065-0.066-0.148-0.101-0.224-0.149
		c-0.049-0.074-0.082-0.156-0.148-0.223s-0.148-0.1-0.224-0.148c-0.048-0.075-0.082-0.157-0.147-0.224
		c-0.066-0.066-0.149-0.101-0.226-0.149c-0.048-0.074-0.081-0.156-0.147-0.222c-0.065-0.066-0.148-0.101-0.224-0.149
		c-0.048-0.074-0.082-0.156-0.147-0.223c-0.066-0.066-0.148-0.1-0.224-0.148c-0.049-0.075-0.083-0.157-0.148-0.224
		c-0.066-0.066-0.149-0.101-0.226-0.149c-0.048-0.074-0.081-0.156-0.146-0.222c-0.066-0.066-0.148-0.1-0.223-0.148
		c-0.049-0.076-0.083-0.158-0.148-0.225c-0.066-0.066-0.149-0.101-0.225-0.149c-0.049-0.075-0.082-0.157-0.148-0.223
		c-0.065-0.066-0.148-0.101-0.225-0.149c-0.048-0.075-0.082-0.157-0.146-0.223c-0.066-0.066-0.148-0.1-0.225-0.148
		c-0.049-0.075-0.082-0.157-0.147-0.223c-0.065-0.066-0.148-0.101-0.224-0.149c-0.049-0.074-0.082-0.156-0.148-0.223
		c-0.504-0.506-1.324-0.506-1.829,0l-1.511,1.511l-11.374-4.726c-0.077-0.087-0.169-0.151-0.267-0.216
		c-0.099-0.15-0.222-0.274-0.373-0.372c-0.098-0.15-0.222-0.273-0.372-0.372c-0.099-0.151-0.222-0.274-0.373-0.373
		c-0.098-0.149-0.221-0.271-0.37-0.37c-0.099-0.15-0.222-0.274-0.373-0.373c-0.098-0.15-0.221-0.273-0.372-0.371
		c-0.098-0.15-0.222-0.274-0.372-0.372c-0.099-0.151-0.222-0.274-0.373-0.373c-0.098-0.15-0.221-0.273-0.371-0.371
		c-0.098-0.15-0.221-0.272-0.37-0.371c-0.099-0.151-0.223-0.275-0.374-0.374c-0.098-0.149-0.221-0.272-0.371-0.37
		c-0.23-0.354-0.609-0.601-1.062-0.601c-0.716,0-1.295,0.58-1.295,1.295v2.142l-15.882,6.561l-0.016-0.016l-0.372-0.372
		c0,0,0,0-0.001,0l-0.371-0.372l-0.001-0.001l-0.742-0.742c-0.503-0.506-1.32-0.506-1.826,0c-0.505,0.506-0.505,1.322,0,1.828
		l0.744,0.744l0.371,0.371l0,0.001l0.383,0.383l0.022,0.021l-6.594,15.864h-2.128c-0.715,0-1.292,0.578-1.292,1.293
		c0,0.453,0.247,0.832,0.6,1.063c0.098,0.15,0.222,0.274,0.372,0.372c0.098,0.15,0.221,0.273,0.372,0.372
		c0.098,0.15,0.221,0.273,0.371,0.371c0.099,0.151,0.222,0.274,0.373,0.373c0.098,0.15,0.221,0.273,0.372,0.371
		c0.098,0.15,0.222,0.274,0.372,0.372c0.098,0.15,0.221,0.274,0.372,0.372c0.098,0.15,0.222,0.273,0.372,0.372
		c0.098,0.151,0.222,0.274,0.373,0.373c0.098,0.149,0.221,0.272,0.37,0.37c0.098,0.15,0.222,0.273,0.373,0.372
		c0.098,0.15,0.221,0.273,0.372,0.372c0.07,0.108,0.148,0.206,0.248,0.288l4.689,11.358L31.415,71.1
		c-0.505,0.504-0.505,1.322,0,1.828c0.066,0.065,0.148,0.1,0.223,0.148c0.049,0.075,0.083,0.157,0.149,0.224
		s0.149,0.101,0.225,0.149c0.049,0.074,0.082,0.156,0.147,0.222s0.147,0.099,0.222,0.147c0.049,0.076,0.083,0.159,0.15,0.226
		c0.065,0.065,0.147,0.099,0.222,0.147c0.049,0.075,0.083,0.158,0.15,0.225c0.066,0.065,0.148,0.1,0.224,0.148
		c0.048,0.075,0.082,0.157,0.148,0.223s0.148,0.1,0.223,0.148c0.049,0.075,0.083,0.157,0.149,0.224
		c0.066,0.065,0.148,0.1,0.223,0.148c0.049,0.075,0.083,0.157,0.149,0.224c0.066,0.066,0.148,0.1,0.224,0.149
		c0.048,0.074,0.082,0.156,0.147,0.222c0.066,0.065,0.147,0.1,0.223,0.148c0.049,0.075,0.083,0.158,0.149,0.225
		c0.066,0.065,0.148,0.1,0.224,0.148c0.048,0.075,0.082,0.157,0.148,0.223s0.148,0.1,0.223,0.148
		c0.049,0.075,0.083,0.157,0.149,0.224c0.066,0.065,0.148,0.101,0.224,0.149c0.048,0.074,0.082,0.156,0.148,0.223
		c0.065,0.065,0.147,0.099,0.222,0.147c0.049,0.076,0.083,0.158,0.149,0.225c0.065,0.065,0.148,0.1,0.223,0.147
		c0.049,0.076,0.083,0.158,0.149,0.225c0.066,0.065,0.148,0.1,0.224,0.148c0.048,0.075,0.082,0.157,0.148,0.223
		c0.065,0.065,0.147,0.1,0.223,0.148c0.049,0.075,0.083,0.157,0.149,0.224c0.066,0.065,0.148,0.1,0.223,0.148
		c0.049,0.075,0.083,0.157,0.149,0.224c0.065,0.065,0.147,0.1,0.223,0.147c0.049,0.076,0.083,0.158,0.149,0.225
		c0.066,0.065,0.148,0.1,0.224,0.148c0.049,0.075,0.083,0.157,0.148,0.224c0.066,0.065,0.148,0.1,0.223,0.148
		c0.049,0.075,0.083,0.157,0.149,0.224c0.066,0.065,0.149,0.101,0.225,0.149c0.048,0.074,0.082,0.156,0.147,0.222
		c0.066,0.065,0.149,0.101,0.224,0.149c0.049,0.075,0.082,0.157,0.148,0.223c0.065,0.065,0.147,0.099,0.222,0.147
		c0.049,0.076,0.083,0.158,0.149,0.225c0.066,0.065,0.148,0.1,0.223,0.148c0.049,0.075,0.083,0.157,0.149,0.224
		c0.066,0.066,0.148,0.101,0.224,0.149c0.048,0.074,0.082,0.156,0.147,0.222c0.066,0.065,0.148,0.1,0.223,0.148
		c0.049,0.075,0.083,0.158,0.149,0.225c0.066,0.066,0.149,0.101,0.225,0.149c0.048,0.074,0.082,0.156,0.147,0.222
		c0.066,0.066,0.148,0.1,0.224,0.148c0.048,0.075,0.082,0.158,0.148,0.224c0.065,0.065,0.147,0.099,0.222,0.147
		c0.049,0.076,0.083,0.158,0.149,0.225c0.066,0.065,0.148,0.1,0.223,0.148c0.049,0.075,0.083,0.157,0.149,0.224
		c0.066,0.065,0.148,0.1,0.223,0.148c0.049,0.075,0.083,0.157,0.149,0.224c0.065,0.065,0.147,0.1,0.222,0.147
		c0.049,0.076,0.083,0.158,0.149,0.225c0.065,0.065,0.148,0.1,0.223,0.147c0.049,0.076,0.083,0.158,0.149,0.225
		c0.066,0.065,0.148,0.1,0.223,0.148c0.049,0.074,0.083,0.157,0.148,0.223s0.148,0.1,0.223,0.148
		c0.049,0.075,0.083,0.157,0.149,0.224c0.066,0.065,0.148,0.101,0.224,0.149c0.049,0.074,0.082,0.157,0.148,0.223
		c0.066,0.065,0.149,0.101,0.225,0.149c0.049,0.074,0.082,0.156,0.147,0.222c0.066,0.065,0.148,0.1,0.224,0.148
		c0.049,0.075,0.083,0.158,0.148,0.224c0.065,0.065,0.147,0.1,0.222,0.148c0.049,0.075,0.083,0.157,0.149,0.224
		c0.066,0.065,0.148,0.1,0.223,0.148c0.049,0.075,0.083,0.157,0.149,0.224c0.066,0.065,0.148,0.1,0.224,0.148
		c0.049,0.075,0.083,0.157,0.148,0.224c0.066,0.066,0.149,0.101,0.225,0.149c0.048,0.075,0.082,0.156,0.147,0.222
		c0.066,0.065,0.148,0.1,0.223,0.148c0.049,0.076,0.083,0.158,0.149,0.225c0.065,0.065,0.147,0.1,0.222,0.147
		c0.049,0.075,0.083,0.158,0.149,0.224c0.066,0.065,0.148,0.1,0.224,0.148c0.049,0.075,0.083,0.158,0.148,0.224
		s0.148,0.1,0.223,0.148c0.049,0.075,0.083,0.157,0.149,0.224c0.066,0.065,0.148,0.1,0.223,0.148
		c0.049,0.075,0.083,0.157,0.149,0.224c0.066,0.065,0.148,0.1,0.224,0.148c0.049,0.075,0.083,0.157,0.148,0.224
		c0.065,0.065,0.147,0.099,0.222,0.147c0.049,0.076,0.083,0.158,0.149,0.225c0.065,0.065,0.147,0.099,0.223,0.147
		c0.049,0.076,0.083,0.158,0.149,0.225c0.066,0.065,0.148,0.1,0.224,0.148c0.049,0.075,0.083,0.157,0.148,0.223
		s0.148,0.1,0.223,0.148c0.049,0.075,0.083,0.157,0.149,0.224c0.066,0.065,0.148,0.1,0.223,0.148
		c0.049,0.075,0.083,0.157,0.149,0.224c0.066,0.065,0.148,0.1,0.223,0.148c0.049,0.075,0.083,0.157,0.149,0.224
		c0.066,0.065,0.148,0.1,0.224,0.148c0.048,0.075,0.082,0.157,0.148,0.223c0.066,0.066,0.148,0.101,0.224,0.149
		c0.049,0.075,0.083,0.157,0.148,0.223s0.148,0.1,0.223,0.148c0.049,0.075,0.083,0.157,0.149,0.224
		c0.066,0.065,0.148,0.1,0.223,0.148c0.049,0.075,0.083,0.157,0.149,0.224c0.066,0.065,0.148,0.1,0.223,0.148
		c0.049,0.075,0.083,0.157,0.149,0.224c0.066,0.065,0.148,0.1,0.223,0.147c0.049,0.076,0.083,0.158,0.149,0.225
		c0.066,0.065,0.148,0.1,0.223,0.148c0.048,0.075,0.082,0.157,0.148,0.223c0.065,0.065,0.148,0.1,0.223,0.148
		c0.049,0.075,0.083,0.158,0.15,0.225c0.066,0.066,0.149,0.101,0.225,0.149c0.048,0.075,0.082,0.156,0.147,0.222
		s0.147,0.099,0.222,0.147c0.049,0.076,0.083,0.158,0.149,0.225c0.066,0.065,0.148,0.1,0.223,0.148
		c0.048,0.075,0.083,0.157,0.148,0.224c0.066,0.066,0.149,0.101,0.225,0.15c0.049,0.074,0.082,0.155,0.147,0.221
		c0.066,0.065,0.148,0.1,0.223,0.148c0.049,0.076,0.083,0.158,0.149,0.225c0.066,0.065,0.148,0.1,0.223,0.148
		c0.048,0.075,0.082,0.157,0.148,0.223s0.148,0.1,0.223,0.148c0.049,0.075,0.083,0.157,0.149,0.224
		c0.066,0.065,0.148,0.1,0.223,0.148c0.049,0.075,0.083,0.157,0.149,0.224c0.066,0.065,0.148,0.1,0.223,0.148
		c0.049,0.075,0.083,0.157,0.149,0.224c0.066,0.065,0.148,0.101,0.224,0.149c0.048,0.074,0.082,0.156,0.147,0.222
		c0.066,0.065,0.148,0.1,0.223,0.148c0.049,0.075,0.083,0.157,0.149,0.224c0.066,0.065,0.148,0.1,0.224,0.148
		c0.049,0.075,0.083,0.157,0.148,0.224c0.066,0.066,0.149,0.101,0.225,0.149c0.048,0.075,0.082,0.157,0.148,0.223
		c0.065,0.065,0.147,0.1,0.223,0.148c0.049,0.075,0.083,0.157,0.149,0.224c0.065,0.065,0.147,0.099,0.222,0.147
		c0.049,0.075,0.083,0.158,0.149,0.225s0.149,0.1,0.224,0.149c0.049,0.074,0.082,0.156,0.148,0.222
		c0.03,0.029,0.066,0.046,0.101,0.067c20.898-3.602,37.376-20.08,40.979-40.978c-0.021-0.034-0.038-0.071-0.067-0.101
		C101.369,60.858,101.287,60.824,101.212,60.775z"/>
	<g id="icon_26_">
		<g>
			<path style="fill:#FFFFFF;" d="M51.922,81.422c-0.716,0-1.295-0.58-1.295-1.293V24.717c0-0.715,0.58-1.295,1.295-1.295
				c0.714,0,1.292,0.58,1.292,1.295v55.412C53.213,80.842,52.636,81.422,51.922,81.422z"/>
			<path style="fill:#FFFFFF;" d="M32.328,73.307c-0.332,0-0.661-0.129-0.913-0.379c-0.505-0.506-0.505-1.324,0-1.828l39.184-39.184
				c0.505-0.506,1.325-0.506,1.829,0c0.505,0.506,0.505,1.322,0,1.828L33.241,72.928C32.992,73.178,32.66,73.307,32.328,73.307z"/>
			<path style="fill:#FFFFFF;" d="M79.629,53.713H24.213c-0.715,0-1.292-0.578-1.292-1.291c0-0.715,0.577-1.293,1.292-1.293h55.416
				c0.715,0,1.293,0.578,1.293,1.293C80.922,53.135,80.344,53.713,79.629,53.713z"/>
			<path style="fill:#FFFFFF;" d="M71.514,73.307c-0.332,0-0.664-0.129-0.915-0.379L31.415,33.744c-0.505-0.506-0.505-1.322,0-1.828
				c0.505-0.506,1.322-0.506,1.826,0L72.428,71.1c0.505,0.504,0.505,1.322,0,1.828C72.172,73.178,71.845,73.307,71.514,73.307z"/>
		</g>
		<g>
			<g>
				<polygon style="fill:#F36E41;" points="33.445,70.861 51.897,78.529 51.926,52.42 				"/>
				<polygon style="fill:#F36E41;" points="51.958,26.311 51.926,52.42 70.412,33.977 				"/>
				<g>
					<g>
						<polygon style="fill:#FFD55C;" points="51.958,26.309 33.488,33.938 51.926,52.42 						"/>
						<polygon style="fill:#FFD55C;" points="70.372,70.902 51.926,52.42 51.897,78.529 						"/>
					</g>
				</g>
			</g>
			<g>
				<polygon style="fill:#FFD55C;" points="25.818,52.389 33.445,70.861 51.926,52.42 				"/>
				<polygon style="fill:#FFD55C;" points="70.412,33.977 51.926,52.42 78.037,52.447 				"/>
			</g>
			<g>
				<polygon style="fill:#F36E41;" points="33.488,33.936 25.818,52.389 51.926,52.42 				"/>
				<polygon style="fill:#F36E41;" points="78.037,52.447 51.926,52.42 70.369,70.902 				"/>
			</g>
			<circle style="fill:#FFFFFF;" cx="51.811" cy="52.436" r="2.214"/>
		</g>
	</g>
	<path id="shadow_14_" style="fill:#E6E6E5;" d="M53.213,80.129v-2.145l15.885-6.557l1.5,1.5c0.251,0.25,0.583,0.379,0.915,0.379
		c0.331,0,0.658-0.129,0.914-0.379c0.505-0.506,0.505-1.324,0-1.828l-1.513-1.512l6.597-15.875h2.117
		c0.715,0,1.293-0.578,1.293-1.291c0-0.715-0.578-1.293-1.293-1.293h-2.137l-6.56-15.889l1.495-1.496
		c0.505-0.506,0.505-1.322,0-1.828c-0.504-0.506-1.324-0.506-1.829,0l-1.511,1.512l-15.875-6.596v-2.115
		c0-0.715-0.578-1.295-1.292-1.295v58C52.636,81.422,53.213,80.842,53.213,80.129z"/>
</g>
</svg>
